<?xml version="1.0" encoding="utf-8"?>
<!-- Generator: Adobe Illustrator 28.2.0, SVG Export Plug-In . SVG Version: 6.00 Build 0)  -->
<svg version="1.1" id="Layer_1" xmlns="http://www.w3.org/2000/svg" xmlns:xlink="http://www.w3.org/1999/xlink" x="0px" y="0px"
	 viewBox="0 0 1000 1000" style="enable-background:new 0 0 1000 1000;" xml:space="preserve">
<style type="text/css">
	.st0{fill:#FFFFFF;}
	.st1{fill:url(#SVGID_1_);}
	.st2{fill:url(#SVGID_00000085945922791951786010000014299187158329428919_);}
	.st3{fill:url(#SVGID_00000142884166475075644250000002836208468019816608_);}
	.st4{fill:url(#SVGID_00000163073613432716373740000011049163838254280086_);}
	.st5{fill:url(#SVGID_00000168102155677218600540000004216671764801888445_);}
	.st6{fill:url(#SVGID_00000181060628215626123940000013652273382382934973_);}
	.st7{fill:url(#SVGID_00000096780287454193994950000010463559464485094565_);}
	.st8{fill:url(#SVGID_00000063602843627379781950000007700549877130131890_);}
	.st9{fill:url(#SVGID_00000157291212361614309120000012871147293716642494_);}
	.st10{fill:url(#SVGID_00000144329980080978623070000013196766614227876486_);}
	.st11{fill:url(#SVGID_00000165919175089749730730000000511623178424875164_);}
	.st12{fill:url(#SVGID_00000178193857601012441110000005979756655730877072_);}
	.st13{fill:url(#SVGID_00000088833550567320207040000007700118675190301059_);}
	.st14{fill:url(#SVGID_00000115497581217487423510000003221423917753183645_);}
	.st15{fill:url(#SVGID_00000024691739634862521430000012680570167588026042_);}
	.st16{fill:url(#SVGID_00000077299533822336461620000013974460151165757618_);}
	.st17{fill:url(#SVGID_00000003098701998342693410000014006623952851366808_);}
	.st18{fill:url(#SVGID_00000168801272852120878620000011619326249960474524_);}
	.st19{fill:url(#SVGID_00000117638416114469353240000002971078258872731284_);}
	.st20{fill:url(#SVGID_00000102504316007292027970000008117289601795906202_);}
	.st21{fill:url(#SVGID_00000166661983206896924100000013799993908764975285_);}
	.st22{fill:url(#SVGID_00000124847772554562992380000007433739354712307095_);}
	.st23{fill:#505050;}
</style>
<rect x="-41.27" y="-40" width="1082.53" height="1080"/>
<g>
	<path class="st0" d="M362.94,519.83c0,6.72,0.6,13.3,1.76,19.67c2.82-4.98,6.19-9.38,9.97-13.08c-0.14-2.17-0.22-4.37-0.22-6.59
		c0-42.38,26.62-78.66,64.02-92.99c1.17-1.48,2.39-2.96,3.66-4.46c3.44-4.06,6.22-7.74,8.42-11.11
		C400.55,422.04,362.94,466.64,362.94,519.83z M474.01,619.38c-4.14,0-8.23-0.26-12.25-0.76c-2.07,1.31-4.12,2.72-6.25,4.19
		c-2.39,1.65-4.88,3.37-7.51,5.01c8.35,2.01,17.05,3.08,26,3.08c52.32,0,96.32-36.37,108.02-85.16l-12.84,3.28
		C556.7,589.71,518.77,619.38,474.01,619.38z M573.57,519.83v0.12l8.3-2.13c-0.79-1.77-1.19-3.68-1.22-5.71
		c-0.04-3.15,1.11-6.3,3.21-8.79c-5.71-38.08-30.82-69.91-64.92-85.05c1.22,4.04,1.99,8.63,2.04,13.82
		C552.25,448.88,573.57,481.91,573.57,519.83z"/>
	<g>
		<path class="st0" d="M612.48,513.55c3.41,0.02,5.93-2.38,5.99-5.69c0.06-3.27-2.54-5.95-5.76-5.95c-3.04,0-5.7,2.67-5.73,5.75
			C606.97,510.89,609.43,513.53,612.48,513.55z"/>
		<path class="st0" d="M594.28,517.85c3.28-0.02,5.69-2.36,5.72-5.57c0.03-3.13-2.72-6.02-5.73-6.01c-3.04,0.01-5.75,2.73-5.71,5.71
			C588.61,515.44,590.98,517.87,594.28,517.85z"/>
		<path class="st0" d="M620.7,532.02c-3.19-0.19-5.73,2.14-5.92,5.42c-0.18,2.98,2.42,5.9,5.39,6.06c3.22,0.17,5.78-2.07,6.06-5.31
			C626.51,535.02,623.99,532.21,620.7,532.02z"/>
		<path class="st0" d="M602.19,536.58c-3.35-0.03-5.83,2.39-5.9,5.75c-0.05,2.85,2.59,5.52,5.54,5.59c3.29,0.08,6-2.48,6.03-5.69
			C607.88,539.06,605.43,536.61,602.19,536.58z"/>
		<path class="st0" d="M463.94,593.91c-12.58,3.31-20.55,14.6-32.26,19.51c-28.1,11.03-56.62-12.22-55.87-40.21l0-0.29
			c0.03-16.47,12.13-37.69,28.94-39.55c9.92-1.43,20.33,2.99,29.89,2.58c10.48-0.08,18.46-8.85,28.94-9.5
			c8.9-0.86,14.82,0,26.68,7.66c0,0-4.95-27.63-56.6-11.6c-11.28,3.5-24.12-4.27-35.87-0.65c-26.37,6.8-39.61,41.83-32.18,66.84
			c6.17,26.83,34.17,44.13,61.97,38.81c13.49-1.79,23.29-12.43,34.84-18.4c9.2-4.95,19.62-5.74,27.95-12.25
			c15.48-12.11,9.72-26.61,9.72-26.61C493,595.01,472.22,591.09,463.94,593.91z"/>
		<path class="st0" d="M449.03,544.79c-11.49,0-20.81,9.32-20.81,20.81s9.32,20.81,20.81,20.81c11.27,0,20.42-8.96,20.78-20.14
			l167.25-42.79l-2.7-10.94l-167.24,42.79C463.54,549.04,456.78,544.79,449.03,544.79z"/>
		<path class="st0" d="M410.6,555.3l2.56-0.65l-2.14-8.36l-2.56,0.65c-4.62,1.18-8.49,4.09-10.92,8.18s-3.11,8.9-1.93,13.51
			l4.98,19.45c2.06,8.05,9.33,13.41,17.28,13.41c1.46,0,2.94-0.18,4.42-0.56l2.56-0.65l-2.14-8.36l-2.56,0.65
			c-4.48,1.14-9.03-1.23-10.76-5.38l6.09-1.56l-5.42-21.17l-6.18,1.58c-0.46-2.24-0.09-4.54,1.09-6.53
			C406.22,557.41,408.22,555.91,410.6,555.3z"/>
		<path class="st0" d="M452.55,499.39c-8.77-23.55,4.1-44.87,13.39-54.37c6.7-6.84,12.16-15.81,13.99-25.21
			c5.37-27.57-7.9-44.29-23.16-50.71c6.94,10.07,20.19,24.48-8.59,58.38C400.85,483.23,452.55,499.39,452.55,499.39z"/>
		<path class="st0" d="M487.36,515.42c-7.89-21.17,3.69-40.33,12.03-48.86c6.02-6.15,10.93-14.21,12.57-22.65
			c4.83-24.77-7.1-39.81-20.82-45.57c6.24,9.05,18.14,22-7.72,52.47C440.9,500.9,487.36,515.42,487.36,515.42z"/>
		<path class="st0" d="M512.7,480.83c-30.78,36.25,2.85,46.76,2.85,46.76c-5.71-15.32,2.67-29.18,8.71-35.36
			c4.35-4.45,7.91-10.28,9.1-16.39c3.49-17.93-5.14-28.8-15.06-32.98C522.8,449.42,531.42,458.78,512.7,480.83z"/>
	</g>
</g>
</svg>
