<?xml version="1.0" encoding="utf-8"?>
<!-- Generator: Adobe Illustrator 28.2.0, SVG Export Plug-In . SVG Version: 6.00 Build 0)  -->
<svg version="1.1" id="Layer_1" xmlns="http://www.w3.org/2000/svg" xmlns:xlink="http://www.w3.org/1999/xlink" x="0px" y="0px"
	 viewBox="0 0 1000 1000" style="enable-background:new 0 0 1000 1000;" xml:space="preserve">
<style type="text/css">
	.st0{fill:#FFFFFF;}
	.st1{fill:url(#SVGID_1_);}
	.st2{fill:url(#SVGID_00000137851839348537445010000009215491377416288930_);}
	.st3{fill:url(#SVGID_00000005225007979402000010000006484066701816006320_);}
	.st4{fill:url(#SVGID_00000101103535741119901170000004186333765083410611_);}
	.st5{fill:url(#SVGID_00000176732327837898373790000009316567514362416521_);}
	.st6{fill:url(#SVGID_00000104697395630801118420000002562661627943610496_);}
	.st7{fill:url(#SVGID_00000121970414093878797720000010148392101091274923_);}
	.st8{fill:url(#SVGID_00000086679650498079199940000005307428312710998190_);}
	.st9{fill:url(#SVGID_00000029032643249280667570000009818608797784271795_);}
	.st10{fill:url(#SVGID_00000098925048943064384180000007434296572669652887_);}
	.st11{fill:url(#SVGID_00000084526255805114603870000012501833111988016790_);}
	.st12{fill:url(#SVGID_00000095323903014276413520000003223709412206649521_);}
	.st13{fill:url(#SVGID_00000155854539399836130080000015409640062589753787_);}
	.st14{fill:url(#SVGID_00000052818774502867494650000012436940948745894565_);}
	.st15{fill:url(#SVGID_00000088848621186241799960000003728841934844304514_);}
	.st16{fill:url(#SVGID_00000181048846537176406190000001867040662660629392_);}
	.st17{fill:url(#SVGID_00000110429931054853174790000003192224458606580868_);}
	.st18{fill:url(#SVGID_00000062898248658547631750000016416920423644494733_);}
	.st19{fill:url(#SVGID_00000041976292841903673200000007992087105361833601_);}
	.st20{fill:url(#SVGID_00000066483004244536635420000015053715115815274132_);}
	.st21{fill:url(#SVGID_00000006672995938917430230000008028491168387245703_);}
	.st22{fill:url(#SVGID_00000081642714979569178630000009680235613130946181_);}
	.st23{fill:#505050;}
</style>
<rect x="-26.62" y="-40" class="st0" width="1053.24" height="1080"/>
<g>
	<linearGradient id="SVGID_1_" gradientUnits="userSpaceOnUse" x1="448.7636" y1="330.8922" x2="497.0597" y2="692.3335">
		<stop  offset="0" style="stop-color:#F8DC75"/>
		<stop  offset="0.9821" style="stop-color:#997E30"/>
	</linearGradient>
	<path class="st1" d="M362.94,519.83c0,6.72,0.6,13.3,1.76,19.67c2.82-4.98,6.19-9.38,9.97-13.08c-0.14-2.17-0.22-4.37-0.22-6.59
		c0-42.38,26.62-78.66,64.02-92.99c1.17-1.48,2.39-2.96,3.66-4.46c3.44-4.06,6.22-7.74,8.42-11.11
		C400.55,422.04,362.94,466.64,362.94,519.83z M474.01,619.38c-4.14,0-8.23-0.26-12.25-0.76c-2.07,1.31-4.12,2.72-6.25,4.19
		c-2.39,1.65-4.88,3.37-7.51,5.01c8.35,2.01,17.05,3.08,26,3.08c52.32,0,96.32-36.37,108.02-85.16l-12.84,3.28
		C556.7,589.71,518.77,619.38,474.01,619.38z M573.57,519.83v0.12l8.3-2.13c-0.79-1.77-1.19-3.68-1.22-5.71
		c-0.04-3.15,1.11-6.3,3.21-8.79c-5.71-38.08-30.82-69.91-64.92-85.05c1.22,4.04,1.99,8.63,2.04,13.82
		C552.25,448.88,573.57,481.91,573.57,519.83z"/>
	<g>
		
			<linearGradient id="SVGID_00000021099237508563921820000010252280940761939119_" gradientUnits="userSpaceOnUse" x1="586.6379" y1="312.4693" x2="634.934" y2="673.9106">
			<stop  offset="0" style="stop-color:#F8DC75"/>
			<stop  offset="0.9821" style="stop-color:#997E30"/>
		</linearGradient>
		<path style="fill:url(#SVGID_00000021099237508563921820000010252280940761939119_);" d="M612.48,513.55
			c3.41,0.02,5.93-2.38,5.99-5.69c0.06-3.27-2.54-5.95-5.76-5.95c-3.04,0-5.7,2.67-5.73,5.75
			C606.97,510.89,609.43,513.53,612.48,513.55z"/>
		
			<linearGradient id="SVGID_00000144310219839417476750000015854210522501283208_" gradientUnits="userSpaceOnUse" x1="567.9391" y1="314.9678" x2="616.2352" y2="676.4092">
			<stop  offset="0" style="stop-color:#F8DC75"/>
			<stop  offset="0.9821" style="stop-color:#997E30"/>
		</linearGradient>
		<path style="fill:url(#SVGID_00000144310219839417476750000015854210522501283208_);" d="M594.28,517.85
			c3.28-0.02,5.69-2.36,5.72-5.57c0.03-3.13-2.72-6.02-5.73-6.01c-3.04,0.01-5.75,2.73-5.71,5.71
			C588.61,515.44,590.98,517.87,594.28,517.85z"/>
		
			<linearGradient id="SVGID_00000121268025703209568530000002505364736639895452_" gradientUnits="userSpaceOnUse" x1="590.3541" y1="311.9727" x2="638.6501" y2="673.4141">
			<stop  offset="0" style="stop-color:#F8DC75"/>
			<stop  offset="0.9821" style="stop-color:#997E30"/>
		</linearGradient>
		<path style="fill:url(#SVGID_00000121268025703209568530000002505364736639895452_);" d="M620.7,532.02
			c-3.19-0.19-5.73,2.14-5.92,5.42c-0.18,2.98,2.42,5.9,5.39,6.06c3.22,0.17,5.78-2.07,6.06-5.31
			C626.51,535.02,623.99,532.21,620.7,532.02z"/>
		
			<linearGradient id="SVGID_00000064317325286717700570000001126443831625760174_" gradientUnits="userSpaceOnUse" x1="571.6406" y1="314.4733" x2="619.9366" y2="675.9146">
			<stop  offset="0" style="stop-color:#F8DC75"/>
			<stop  offset="0.9821" style="stop-color:#997E30"/>
		</linearGradient>
		<path style="fill:url(#SVGID_00000064317325286717700570000001126443831625760174_);" d="M602.19,536.58
			c-3.35-0.03-5.83,2.39-5.9,5.75c-0.05,2.85,2.59,5.52,5.54,5.59c3.29,0.08,6-2.48,6.03-5.69
			C607.88,539.06,605.43,536.61,602.19,536.58z"/>
		
			<linearGradient id="SVGID_00000009589621425938450220000013916556357405690803_" gradientUnits="userSpaceOnUse" x1="400.385" y1="337.3565" x2="448.6811" y2="698.7979">
			<stop  offset="0" style="stop-color:#F8DC75"/>
			<stop  offset="0.9821" style="stop-color:#997E30"/>
		</linearGradient>
		<path style="fill:url(#SVGID_00000009589621425938450220000013916556357405690803_);" d="M463.94,593.91
			c-12.58,3.31-20.55,14.6-32.26,19.51c-28.1,11.03-56.62-12.22-55.87-40.21l0-0.29c0.03-16.47,12.13-37.69,28.94-39.55
			c9.92-1.43,20.33,2.99,29.89,2.58c10.48-0.08,18.46-8.85,28.94-9.5c8.9-0.86,14.82,0,26.68,7.66c0,0-4.95-27.63-56.6-11.6
			c-11.28,3.5-24.12-4.27-35.87-0.65c-26.37,6.8-39.61,41.83-32.18,66.84c6.17,26.83,34.17,44.13,61.97,38.81
			c13.49-1.79,23.29-12.43,34.84-18.4c9.2-4.95,19.62-5.74,27.95-12.25c15.48-12.11,9.72-26.61,9.72-26.61
			C493,595.01,472.22,591.09,463.94,593.91z"/>
		
			<linearGradient id="SVGID_00000075161233990532639520000000369354473741625779_" gradientUnits="userSpaceOnUse" x1="503.0255" y1="323.6417" x2="551.3215" y2="685.083">
			<stop  offset="0" style="stop-color:#F8DC75"/>
			<stop  offset="0.9821" style="stop-color:#997E30"/>
		</linearGradient>
		<path style="fill:url(#SVGID_00000075161233990532639520000000369354473741625779_);" d="M449.03,544.79
			c-11.49,0-20.81,9.32-20.81,20.81s9.32,20.81,20.81,20.81c11.27,0,20.42-8.96,20.78-20.14l167.25-42.79l-2.7-10.94l-167.24,42.79
			C463.54,549.04,456.78,544.79,449.03,544.79z"/>
		
			<linearGradient id="SVGID_00000054983311533845849180000000105161483813787020_" gradientUnits="userSpaceOnUse" x1="377.5461" y1="340.4083" x2="425.8421" y2="701.8497">
			<stop  offset="0" style="stop-color:#F8DC75"/>
			<stop  offset="0.9821" style="stop-color:#997E30"/>
		</linearGradient>
		<path style="fill:url(#SVGID_00000054983311533845849180000000105161483813787020_);" d="M410.6,555.3l2.56-0.65l-2.14-8.36
			l-2.56,0.65c-4.62,1.18-8.49,4.09-10.92,8.18s-3.11,8.9-1.93,13.51l4.98,19.45c2.06,8.05,9.33,13.41,17.28,13.41
			c1.46,0,2.94-0.18,4.42-0.56l2.56-0.65l-2.14-8.36l-2.56,0.65c-4.48,1.14-9.03-1.23-10.76-5.38l6.09-1.56l-5.42-21.17l-6.18,1.58
			c-0.46-2.24-0.09-4.54,1.09-6.53C406.22,557.41,408.22,555.91,410.6,555.3z"/>
		
			<linearGradient id="SVGID_00000110444600598651562920000011533948327198889388_" gradientUnits="userSpaceOnUse" x1="440.5556" y1="331.9889" x2="488.8516" y2="693.4303">
			<stop  offset="0" style="stop-color:#F8DC75"/>
			<stop  offset="0.9821" style="stop-color:#997E30"/>
		</linearGradient>
		<path style="fill:url(#SVGID_00000110444600598651562920000011533948327198889388_);" d="M452.55,499.39
			c-8.77-23.55,4.1-44.87,13.39-54.37c6.7-6.84,12.16-15.81,13.99-25.21c5.37-27.57-7.9-44.29-23.16-50.71
			c6.94,10.07,20.19,24.48-8.59,58.38C400.85,483.23,452.55,499.39,452.55,499.39z"/>
		
			<linearGradient id="SVGID_00000178203010508154940800000012760166571441147522_" gradientUnits="userSpaceOnUse" x1="471.6237" y1="327.8376" x2="519.9198" y2="689.2789">
			<stop  offset="0" style="stop-color:#F8DC75"/>
			<stop  offset="0.9821" style="stop-color:#997E30"/>
		</linearGradient>
		<path style="fill:url(#SVGID_00000178203010508154940800000012760166571441147522_);" d="M487.36,515.42
			c-7.89-21.17,3.69-40.33,12.03-48.86c6.02-6.15,10.93-14.21,12.57-22.65c4.83-24.77-7.1-39.81-20.82-45.57
			c6.24,9.05,18.14,22-7.72,52.47C440.9,500.9,487.36,515.42,487.36,515.42z"/>
		
			<linearGradient id="SVGID_00000039102558834337300320000004091508213976863166_" gradientUnits="userSpaceOnUse" x1="495.1846" y1="324.6894" x2="543.4807" y2="686.1307">
			<stop  offset="0" style="stop-color:#F8DC75"/>
			<stop  offset="0.9821" style="stop-color:#997E30"/>
		</linearGradient>
		<path style="fill:url(#SVGID_00000039102558834337300320000004091508213976863166_);" d="M512.7,480.83
			c-30.78,36.25,2.85,46.76,2.85,46.76c-5.71-15.32,2.67-29.18,8.71-35.36c4.35-4.45,7.91-10.28,9.1-16.39
			c3.49-17.93-5.14-28.8-15.06-32.98C522.8,449.42,531.42,458.78,512.7,480.83z"/>
	</g>
</g>
</svg>
