<?xml version="1.0" encoding="utf-8"?>
<!-- Generator: Adobe Illustrator 28.2.0, SVG Export Plug-In . SVG Version: 6.00 Build 0)  -->
<svg version="1.1" id="Layer_1" xmlns="http://www.w3.org/2000/svg" xmlns:xlink="http://www.w3.org/1999/xlink" x="0px" y="0px"
	 viewBox="0 0 1920 1080" style="enable-background:new 0 0 1920 1080;" xml:space="preserve">
<style type="text/css">
	.st0{fill:#FFFFFF;}
	.st1{fill:url(#SVGID_1_);}
	.st2{fill:url(#SVGID_00000088849301654777057770000011321290878333248912_);}
	.st3{fill:url(#SVGID_00000034087367857349412190000009026725183973011879_);}
	.st4{fill:url(#SVGID_00000037690377256681456270000010771029478570449036_);}
	.st5{fill:url(#SVGID_00000142168879770726870320000000401717807044338082_);}
	.st6{fill:url(#SVGID_00000150795112199197049110000005937493379451316668_);}
	.st7{fill:url(#SVGID_00000152974082988889231830000000403812631472233122_);}
	.st8{fill:url(#SVGID_00000181776857129093554680000002385100841337281672_);}
	.st9{fill:url(#SVGID_00000162319281685446398180000017694724173152976783_);}
	.st10{fill:url(#SVGID_00000016755860828823063650000000174269573613253520_);}
	.st11{fill:url(#SVGID_00000059304953063771939880000009894834582558264747_);}
	.st12{fill:url(#SVGID_00000064329971822190578690000016303071372016623009_);}
	.st13{fill:url(#SVGID_00000119810662960634325160000012506178386552619695_);}
	.st14{fill:url(#SVGID_00000136371662894805235950000017668491240861716873_);}
	.st15{fill:url(#SVGID_00000023999964868771554210000014744700769830822551_);}
	.st16{fill:url(#SVGID_00000181773308501276541930000002001963570119226794_);}
	.st17{fill:url(#SVGID_00000119092822959440053220000017618687191531365547_);}
	.st18{fill:url(#SVGID_00000121975100451925541000000012472848572683202461_);}
	.st19{fill:url(#SVGID_00000168094527868143707270000000266833191187010196_);}
	.st20{fill:url(#SVGID_00000004521706486926424030000007581923257001371038_);}
	.st21{fill:url(#SVGID_00000126322041636688052160000017868640522399304597_);}
	.st22{fill:url(#SVGID_00000076568921076283540580000004565160235704805814_);}
	.st23{fill:#505050;}
</style>
<rect y="0" width="1920" height="1080"/>
<g>
	<g>
		<path class="st0" d="M610.44,559.83c0,6.72,0.6,13.3,1.76,19.67c2.82-4.98,6.19-9.38,9.97-13.08c-0.14-2.17-0.22-4.37-0.22-6.59
			c0-42.38,26.62-78.66,64.02-92.99c1.17-1.48,2.39-2.96,3.66-4.46c3.44-4.06,6.22-7.74,8.42-11.11
			C648.04,462.04,610.44,506.64,610.44,559.83z M721.51,659.38c-4.14,0-8.23-0.26-12.25-0.76c-2.07,1.31-4.12,2.72-6.25,4.19
			c-2.39,1.65-4.88,3.37-7.51,5.01c8.35,2.01,17.05,3.08,26,3.08c52.32,0,96.32-36.37,108.02-85.16l-12.84,3.28
			C804.19,629.71,766.26,659.38,721.51,659.38z M821.06,559.83v0.12l8.3-2.13c-0.79-1.77-1.19-3.68-1.22-5.71
			c-0.04-3.15,1.11-6.3,3.21-8.79c-5.71-38.08-30.82-69.91-64.92-85.05c1.22,4.04,1.99,8.63,2.04,13.82
			C799.75,488.88,821.06,521.91,821.06,559.83z"/>
		<g>
			<path class="st0" d="M859.98,553.55c3.41,0.02,5.93-2.38,5.99-5.69c0.06-3.27-2.54-5.95-5.76-5.95c-3.04,0-5.7,2.67-5.73,5.75
				C854.46,550.89,856.93,553.53,859.98,553.55z"/>
			<path class="st0" d="M841.78,557.85c3.28-0.02,5.69-2.36,5.72-5.57c0.03-3.13-2.72-6.02-5.73-6.01
				c-3.04,0.01-5.75,2.73-5.71,5.71C836.1,555.44,838.48,557.87,841.78,557.85z"/>
			<path class="st0" d="M868.2,572.02c-3.19-0.19-5.73,2.14-5.92,5.42c-0.18,2.98,2.42,5.9,5.39,6.06c3.22,0.17,5.78-2.07,6.06-5.31
				C874.01,575.02,871.49,572.21,868.2,572.02z"/>
			<path class="st0" d="M849.68,576.58c-3.35-0.03-5.83,2.39-5.9,5.75c-0.05,2.85,2.59,5.52,5.54,5.59c3.29,0.08,6-2.48,6.03-5.69
				C855.38,579.06,852.92,576.61,849.68,576.58z"/>
			<path class="st0" d="M711.43,633.91c-12.58,3.31-20.55,14.6-32.26,19.51c-28.1,11.03-56.62-12.22-55.87-40.21l0-0.29
				c0.03-16.47,12.13-37.69,28.94-39.55c9.92-1.43,20.33,2.99,29.89,2.58c10.48-0.08,18.46-8.85,28.94-9.5
				c8.9-0.86,14.82,0,26.68,7.66c0,0-4.95-27.63-56.6-11.6c-11.28,3.5-24.12-4.27-35.87-0.65c-26.37,6.8-39.61,41.83-32.18,66.84
				c6.17,26.83,34.17,44.13,61.97,38.81c13.49-1.79,23.29-12.43,34.84-18.4c9.2-4.95,19.62-5.74,27.95-12.25
				c15.48-12.11,9.72-26.61,9.72-26.61C740.49,635.01,719.71,631.09,711.43,633.91z"/>
			<path class="st0" d="M696.52,584.79c-11.49,0-20.81,9.32-20.81,20.81s9.32,20.81,20.81,20.81c11.27,0,20.42-8.96,20.78-20.14
				l167.25-42.79l-2.7-10.94l-167.24,42.79C711.03,589.04,704.28,584.79,696.52,584.79z"/>
			<path class="st0" d="M658.09,595.3l2.56-0.65l-2.14-8.36l-2.56,0.65c-4.62,1.18-8.49,4.09-10.92,8.18
				c-2.43,4.1-3.11,8.9-1.93,13.51l4.98,19.45c2.06,8.05,9.33,13.41,17.28,13.41c1.46,0,2.94-0.18,4.42-0.56l2.56-0.65l-2.14-8.36
				l-2.56,0.65c-4.48,1.14-9.03-1.23-10.76-5.38l6.09-1.56l-5.42-21.17l-6.18,1.58c-0.46-2.24-0.09-4.54,1.09-6.53
				C653.71,597.41,655.71,595.91,658.09,595.3z"/>
			<path class="st0" d="M700.04,539.39c-8.77-23.55,4.1-44.87,13.39-54.37c6.7-6.84,12.16-15.81,13.99-25.21
				c5.37-27.57-7.9-44.29-23.16-50.71c6.94,10.07,20.19,24.48-8.59,58.38C648.34,523.23,700.04,539.39,700.04,539.39z"/>
			<path class="st0" d="M734.86,555.42c-7.89-21.17,3.69-40.33,12.03-48.86c6.02-6.15,10.93-14.21,12.57-22.65
				c4.83-24.77-7.1-39.81-20.82-45.57c6.24,9.05,18.14,22-7.72,52.47C688.39,540.9,734.86,555.42,734.86,555.42z"/>
			<path class="st0" d="M760.2,520.83c-30.78,36.25,2.85,46.76,2.85,46.76c-5.71-15.32,2.67-29.18,8.71-35.36
				c4.35-4.45,7.91-10.28,9.1-16.39c3.49-17.93-5.14-28.8-15.06-32.98C770.3,489.42,778.91,498.78,760.2,520.83z"/>
		</g>
	</g>
	<g>
		<g>
			<g>
				<path class="st0" d="M896.72,528.65v-10.71l41.76-51.39h-41.33v-13.63h61.67v10.71l-41.55,51.39h42.09v13.63H896.72z"/>
				<path class="st0" d="M993.11,529.73c-5.63,0-10.73-1.32-15.31-3.95c-4.58-2.63-8.21-6.13-10.87-10.49c-2.67-4.36-4-9.29-4-14.77
					c0-5.41,1.28-10.33,3.84-14.77c2.56-4.43,6.04-7.95,10.44-10.55c4.4-2.6,9.27-3.89,14.61-3.89c5.41,0,10.22,1.32,14.44,3.95
					c4.22,2.63,7.54,6.22,9.95,10.76c2.42,4.54,3.62,9.74,3.62,15.58v3.89h-41.76c0.65,2.24,1.73,4.26,3.25,6.06
					c1.51,1.81,3.35,3.19,5.52,4.17c2.16,0.98,4.51,1.46,7.03,1.46c2.45,0,4.76-0.38,6.92-1.14c2.16-0.76,4-1.86,5.52-3.3l9.74,8.87
					c-3.46,2.81-7.02,4.87-10.66,6.17C1001.75,529.08,997.66,529.73,993.11,529.73z M977.86,494.9h27.48
					c-0.58-2.23-1.53-4.2-2.87-5.9c-1.34-1.69-2.94-3.01-4.81-3.95c-1.88-0.94-3.89-1.41-6.06-1.41c-2.31,0-4.4,0.45-6.28,1.35
					c-1.88,0.9-3.44,2.2-4.71,3.89C979.36,490.59,978.44,492.59,977.86,494.9z"/>
				<path class="st0" d="M1028.82,528.65v-56.37h14.93v6.28c1.73-2.45,3.88-4.33,6.44-5.63c2.56-1.3,5.43-1.95,8.6-1.95
					c2.81,0.07,4.87,0.47,6.17,1.19v13.09c-1.15-0.5-2.36-0.9-3.62-1.19c-1.26-0.29-2.58-0.43-3.95-0.43c-2.89,0-5.52,0.74-7.9,2.22
					c-2.38,1.48-4.29,3.55-5.73,6.22v36.57H1028.82z"/>
				<path class="st0" d="M1098.27,529.73c-5.63,0-10.71-1.3-15.26-3.89c-4.54-2.6-8.15-6.11-10.82-10.55c-2.67-4.44-4-9.36-4-14.77
					c0-5.48,1.33-10.44,4-14.88c2.67-4.44,6.28-7.93,10.82-10.5c4.54-2.56,9.63-3.84,15.26-3.84c5.63,0,10.71,1.28,15.25,3.84
					c4.54,2.56,8.15,6.06,10.82,10.5c2.67,4.43,4,9.4,4,14.88c0,5.41-1.32,10.33-3.95,14.77c-2.63,4.43-6.22,7.95-10.76,10.55
					C1109.09,528.43,1103.97,529.73,1098.27,529.73z M1098.27,516.86c2.96,0,5.63-0.74,8.01-2.22c2.38-1.48,4.25-3.44,5.63-5.9
					c1.37-2.45,2.05-5.23,2.05-8.33c0-3.03-0.7-5.77-2.11-8.22c-1.41-2.45-3.28-4.4-5.63-5.84c-2.34-1.44-4.96-2.16-7.84-2.16
					c-2.96,0-5.63,0.72-8.01,2.16c-2.38,1.44-4.26,3.39-5.63,5.84c-1.37,2.45-2.06,5.19-2.06,8.22c0,3.1,0.68,5.88,2.06,8.33
					c1.37,2.45,3.23,4.42,5.57,5.9C1092.66,516.12,1095.32,516.86,1098.27,516.86z"/>
				<path class="st0" d="M1180.82,528.65v-61.88h-25.53v-13.85h66.64v13.85h-25.42v61.88H1180.82z"/>
				<path class="st0" d="M1244.33,529.73c-5.63,0-10.71-1.3-15.26-3.89c-4.54-2.6-8.15-6.11-10.82-10.55c-2.67-4.44-4-9.36-4-14.77
					c0-5.48,1.33-10.44,4-14.88c2.67-4.44,6.28-7.93,10.82-10.5c4.54-2.56,9.63-3.84,15.26-3.84c5.63,0,10.71,1.28,15.25,3.84
					c4.54,2.56,8.15,6.06,10.82,10.5c2.67,4.43,4,9.4,4,14.88c0,5.41-1.32,10.33-3.95,14.77c-2.63,4.43-6.22,7.95-10.76,10.55
					C1255.15,528.43,1250.02,529.73,1244.33,529.73z M1244.33,516.86c2.96,0,5.63-0.74,8.01-2.22c2.38-1.48,4.25-3.44,5.63-5.9
					c1.37-2.45,2.05-5.23,2.05-8.33c0-3.03-0.7-5.77-2.11-8.22c-1.41-2.45-3.28-4.4-5.63-5.84c-2.34-1.44-4.96-2.16-7.84-2.16
					c-2.96,0-5.63,0.72-8.01,2.16c-2.38,1.44-4.26,3.39-5.63,5.84c-1.37,2.45-2.06,5.19-2.06,8.22c0,3.1,0.68,5.88,2.06,8.33
					c1.37,2.45,3.23,4.42,5.57,5.9C1238.72,516.12,1241.37,516.86,1244.33,516.86z"/>
			</g>
			<g>
				<path class="st0" d="M901.26,626.97v-75.73h15.69v33.86l33.11-33.86h19.15l-36.78,36.03l38.52,39.71h-20.99l-33-35.16v35.16
					H901.26z"/>
				<path class="st0" d="M993.01,628.05c-4.33,0-8.17-0.96-11.52-2.87c-3.35-1.91-5.97-4.58-7.84-8.01
					c-1.88-3.42-2.81-7.3-2.81-11.63V570.6h14.71v32.78c0,3.68,1.06,6.58,3.19,8.71c2.13,2.13,4.99,3.19,8.6,3.19
					c2.45,0,4.67-0.5,6.65-1.51c1.98-1.01,3.62-2.38,4.92-4.11V570.6h14.82v56.37h-14.82v-4.54
					C1004.58,626.18,999.28,628.05,993.01,628.05z"/>
				<path class="st0" d="M1035.31,626.97V570.6h14.82v4.33c4.04-3.6,8.94-5.41,14.71-5.41c3.68,0,6.96,0.74,9.84,2.22
					c2.88,1.48,5.26,3.55,7.14,6.22c2.31-2.74,5.05-4.83,8.22-6.27c3.17-1.44,6.67-2.17,10.49-2.17c4.18,0,7.88,0.96,11.09,2.87
					c3.21,1.91,5.73,4.54,7.57,7.9c1.84,3.35,2.76,7.23,2.76,11.63v35.05h-14.82v-32.78c0-3.68-0.96-6.58-2.87-8.71
					c-1.91-2.13-4.49-3.19-7.73-3.19c-2.24,0-4.27,0.45-6.11,1.35c-1.84,0.9-3.41,2.33-4.71,4.27c0.07,0.65,0.14,1.3,0.22,1.95
					c0.07,0.65,0.11,1.34,0.11,2.06v35.05h-14.82v-32.78c0-3.68-0.96-6.58-2.87-8.71c-1.91-2.13-4.49-3.19-7.73-3.19
					c-2.24,0-4.24,0.43-6,1.3c-1.77,0.86-3.26,2.16-4.49,3.89v39.49H1035.31z"/>
				<path class="st0" d="M1130.3,626.97v-10.49l28.35-33.43h-28.13V570.6h47.17v10.5l-28.45,33.32h29.1v12.55H1130.3z"/>
				<path class="st0" d="M1194.56,563.9c-2.31,0-4.29-0.83-5.95-2.49c-1.66-1.66-2.49-3.68-2.49-6.06c0-2.31,0.83-4.27,2.49-5.9
					c1.66-1.62,3.64-2.43,5.95-2.43c2.38,0,4.38,0.81,6.01,2.43c1.62,1.62,2.43,3.59,2.43,5.9c0,2.38-0.81,4.4-2.43,6.06
					C1198.94,563.07,1196.94,563.9,1194.56,563.9z M1187.2,626.97V570.6h14.82v56.37H1187.2z"/>
				<path class="st0" d="M1240.21,627.84c-6.2,0-10.91-1.42-14.12-4.27c-3.21-2.85-4.81-6.98-4.81-12.39v-28.24h-11.58V570.6h11.58
					v-14.39l14.71-3.35v17.74h16.23v12.33h-16.23v25.1c0,2.6,0.59,4.45,1.79,5.57c1.19,1.12,3.19,1.68,6,1.68
					c1.51,0,2.87-0.09,4.06-0.27c1.19-0.18,2.51-0.49,3.95-0.92v12.12c-1.51,0.5-3.39,0.9-5.63,1.19
					C1243.93,627.69,1241.94,627.84,1240.21,627.84z"/>
				<path class="st0" d="M1257.63,626.97v-10.49l28.35-33.43h-28.13V570.6h47.17v10.5l-28.45,33.32h29.1v12.55H1257.63z"/>
			</g>
		</g>
	</g>
	<g>
		<path class="st0" d="M903.35,668.72v-20.28h3.04v17.58h11.65v2.69H903.35z"/>
		<path class="st0" d="M927.51,668.72v-20.28h14.95v2.67h-11.91v6.08h7.76v2.58h-7.76v6.29h12.02v2.67H927.51z"/>
		<path class="st0" d="M950.42,668.72l8.37-20.28h3.56l8.31,20.28h-3.3l-2.35-5.94h-9.1l-2.35,5.94H950.42z M956.94,660.26h7.1
			l-3.53-8.92L956.94,660.26z"/>
		<path class="st0" d="M979.16,668.72v-20.28h9.15c1.35,0,2.54,0.25,3.55,0.75c1.01,0.5,1.81,1.2,2.38,2.1
			c0.57,0.9,0.85,1.96,0.85,3.17c0,1.31-0.38,2.46-1.14,3.43c-0.76,0.98-1.76,1.67-3,2.07l4.49,8.75h-3.39l-4.17-8.31h-5.68v8.31
			H979.16z M982.2,657.85h5.88c1.2,0,2.15-0.3,2.87-0.91c0.71-0.61,1.07-1.43,1.07-2.48c0-1.02-0.36-1.84-1.07-2.45
			c-0.71-0.61-1.67-0.91-2.87-0.91h-5.88V657.85z"/>
		<path class="st0" d="M1004.63,668.72v-20.28h2.95l11.3,15.06v-15.06h2.87v20.28h-2.69l-11.56-15.5v15.5H1004.63z"/>
		<path class="st0" d="M1054.43,669.03c-1.49,0-2.87-0.27-4.16-0.81c-1.28-0.54-2.41-1.29-3.38-2.25c-0.97-0.96-1.72-2.07-2.26-3.33
			c-0.54-1.26-0.81-2.62-0.81-4.07s0.27-2.8,0.8-4.07c0.53-1.26,1.28-2.38,2.25-3.33s2.09-1.7,3.38-2.25
			c1.28-0.54,2.66-0.81,4.13-0.81c1.62,0,3.14,0.31,4.56,0.93c1.42,0.62,2.62,1.49,3.61,2.61l-2.09,2
			c-0.75-0.89-1.66-1.56-2.72-2.03c-1.06-0.46-2.18-0.7-3.36-0.7c-1.04,0-2.02,0.19-2.93,0.58c-0.91,0.39-1.7,0.93-2.38,1.62
			c-0.68,0.7-1.2,1.51-1.58,2.43s-0.56,1.93-0.56,3.01c0,1.08,0.19,2.09,0.56,3.01c0.38,0.93,0.9,1.74,1.58,2.45
			c0.68,0.71,1.47,1.25,2.39,1.64c0.92,0.39,1.9,0.58,2.94,0.58c1.22,0,2.31-0.25,3.29-0.75c0.98-0.5,1.77-1.19,2.39-2.07
			c0.62-0.88,0.99-1.88,1.13-3h-6.72v-2.64h9.91v1.07c0,1.43-0.25,2.76-0.75,4s-1.2,2.32-2.1,3.24s-1.96,1.65-3.17,2.16
			S1055.83,669.03,1054.43,669.03z"/>
		<path class="st0" d="M1082.24,669.03c-1.8,0-3.34-0.37-4.64-1.1c-1.29-0.73-2.29-1.77-2.98-3.11c-0.7-1.34-1.04-2.93-1.04-4.77
			v-11.62h3.04v11.62c0,1.26,0.23,2.34,0.7,3.26c0.46,0.92,1.12,1.63,1.96,2.14c0.84,0.51,1.83,0.77,2.97,0.77
			c1.12,0,2.1-0.26,2.93-0.77c0.83-0.51,1.48-1.23,1.94-2.14c0.46-0.92,0.7-2,0.7-3.26v-11.62h3.04v11.62
			c0,1.83-0.35,3.42-1.06,4.77c-0.71,1.34-1.7,2.38-2.98,3.11C1085.51,668.67,1083.99,669.03,1082.24,669.03z"/>
		<path class="st0" d="M1101.01,668.72v-20.28h3.04v20.28H1101.01z"/>
		<path class="st0" d="M1120.1,668.72v-17.58h-7.13v-2.69h17.29v2.69h-7.13v17.58H1120.1z"/>
		<path class="st0" d="M1133.51,668.72l8.37-20.28h3.56l8.31,20.28h-3.3l-2.35-5.94h-9.1l-2.35,5.94H1133.51z M1140.03,660.26h7.1
			l-3.53-8.92L1140.03,660.26z"/>
		<path class="st0" d="M1162.25,668.72v-20.28h9.15c1.35,0,2.54,0.25,3.55,0.75c1.01,0.5,1.81,1.2,2.38,2.1
			c0.57,0.9,0.85,1.96,0.85,3.17c0,1.31-0.38,2.46-1.14,3.43c-0.76,0.98-1.76,1.67-3,2.07l4.49,8.75h-3.39l-4.17-8.31h-5.68v8.31
			H1162.25z M1165.29,657.85h5.88c1.2,0,2.15-0.3,2.87-0.91c0.71-0.61,1.07-1.43,1.07-2.48c0-1.02-0.36-1.84-1.07-2.45
			c-0.71-0.61-1.67-0.91-2.87-0.91h-5.88V657.85z"/>
		<path class="st0" d="M1189.05,668.95c-0.5,0-0.93-0.18-1.29-0.54c-0.36-0.36-0.54-0.8-0.54-1.32c0-0.5,0.18-0.94,0.54-1.3
			s0.79-0.55,1.29-0.55c0.5,0,0.93,0.18,1.29,0.55s0.54,0.8,0.54,1.3c0,0.52-0.18,0.96-0.54,1.32
			C1189.98,668.77,1189.55,668.95,1189.05,668.95z"/>
		<path class="st0" d="M1213.56,668.72v-20.28h14.95v2.67h-11.91v6.23h7.85v2.58h-7.85v8.81H1213.56z"/>
		<path class="st0" d="M1232.18,668.72l8.37-20.28h3.56l8.31,20.28h-3.3l-2.35-5.94h-9.1l-2.35,5.94H1232.18z M1238.7,660.26h7.1
			l-3.53-8.92L1238.7,660.26z"/>
		<path class="st0" d="M1268.19,669.01c-1.62,0-3.19-0.31-4.69-0.94c-1.51-0.63-2.84-1.53-4-2.71l1.85-2.14
			c1.1,1.08,2.23,1.88,3.38,2.4c1.15,0.52,2.36,0.78,3.64,0.78c0.97,0,1.81-0.15,2.55-0.43c0.73-0.29,1.31-0.69,1.72-1.2
			c0.42-0.51,0.62-1.1,0.62-1.75c0-0.91-0.32-1.61-0.96-2.1c-0.64-0.49-1.69-0.85-3.16-1.09l-3.36-0.58
			c-1.87-0.31-3.27-0.9-4.19-1.77c-0.92-0.87-1.38-2.03-1.38-3.48c0-1.16,0.31-2.18,0.93-3.07c0.62-0.89,1.49-1.57,2.62-2.06
			c1.13-0.48,2.44-0.72,3.93-0.72c1.47,0,2.91,0.24,4.33,0.72c1.42,0.48,2.7,1.16,3.84,2.03l-1.68,2.35
			c-2.18-1.66-4.39-2.49-6.63-2.49c-0.89,0-1.67,0.12-2.33,0.38c-0.67,0.25-1.18,0.6-1.54,1.06c-0.36,0.45-0.54,0.99-0.54,1.61
			c0,0.79,0.28,1.41,0.84,1.85c0.56,0.44,1.48,0.77,2.75,0.99l3.3,0.52c2.14,0.35,3.72,0.97,4.72,1.88c1,0.91,1.51,2.15,1.51,3.74
			c0,1.24-0.33,2.33-1,3.27s-1.61,1.68-2.84,2.19C1271.21,668.75,1269.8,669.01,1268.19,669.01z"/>
		<path class="st0" d="M1290.59,668.72v-17.58h-7.13v-2.69h17.29v2.69h-7.13v17.58H1290.59z"/>
		<path class="st0" d="M1307.74,668.95c-0.5,0-0.93-0.18-1.29-0.54c-0.36-0.36-0.54-0.8-0.54-1.32c0-0.5,0.18-0.94,0.54-1.3
			s0.79-0.55,1.29-0.55c0.5,0,0.93,0.18,1.29,0.55s0.54,0.8,0.54,1.3c0,0.52-0.18,0.96-0.54,1.32
			C1308.67,668.77,1308.24,668.95,1307.74,668.95z"/>
	</g>
</g>
</svg>
